<svg width="526" height="380" viewBox="0 0 526 380" fill="none" xmlns="http://www.w3.org/2000/svg">
<g clip-path="url(#clip0_388_1731)">
<path d="M525.24 377.085H0.760116C0.55852 377.085 0.365181 377.005 0.222632 376.862C0.0800828 376.72 0 376.526 0 376.325C0 376.123 0.0800828 375.93 0.222632 375.787C0.365181 375.645 0.55852 375.564 0.760116 375.564H525.24C525.441 375.564 525.635 375.645 525.777 375.787C525.92 375.93 526 376.123 526 376.325C526 376.526 525.92 376.72 525.777 376.862C525.635 377.005 525.441 377.085 525.24 377.085Z" fill="#CCCCCC"/>
<path d="M473.327 244.508H164.72C163.41 244.508 162.153 245.028 161.226 245.955C160.3 246.882 159.779 248.139 159.779 249.449C159.779 250.76 160.3 252.016 161.226 252.943C162.153 253.87 163.41 254.39 164.72 254.39H173.461V372.599C173.461 373.91 173.982 375.167 174.908 376.093C175.835 377.02 177.092 377.541 178.402 377.541C179.712 377.541 180.969 377.02 181.896 376.093C182.822 375.167 183.343 373.91 183.343 372.599L183.418 254.39H453.944V372.599C453.944 373.91 454.465 375.167 455.391 376.093C456.318 377.02 457.574 377.541 458.885 377.541C460.195 377.541 461.452 377.02 462.378 376.093C463.305 375.167 463.826 373.91 463.826 372.599V256.996L465.263 254.39H473.327C474.637 254.39 475.894 253.87 476.821 252.943C477.747 252.016 478.268 250.76 478.268 249.449C478.268 248.139 477.747 246.882 476.821 245.955C475.894 245.028 474.637 244.508 473.327 244.508Z" fill="#CCCCCC"/>
<path d="M335.815 247.094H242.335C240.525 247.092 238.79 246.372 237.51 245.092C236.23 243.812 235.51 242.077 235.508 240.266V188.795C235.51 186.984 236.23 185.249 237.51 183.969C238.79 182.689 240.525 181.969 242.335 181.967H335.815C337.625 181.969 339.361 182.689 340.641 183.969C341.921 185.249 342.641 186.984 342.643 188.795V240.266C342.641 242.077 341.921 243.812 340.641 245.092C339.361 246.372 337.625 247.092 335.815 247.094Z" fill="#3F3D56"/>
<path d="M335.814 187.221H242.335C241.918 187.222 241.518 187.388 241.223 187.683C240.929 187.977 240.763 188.377 240.762 188.794V240.267C240.763 240.684 240.929 241.083 241.223 241.378C241.518 241.673 241.918 241.839 242.335 241.84H335.814C336.231 241.839 336.631 241.673 336.926 241.378C337.221 241.083 337.387 240.684 337.388 240.267V188.794C337.387 188.377 337.221 187.977 336.926 187.683C336.631 187.388 336.231 187.222 335.814 187.221Z" fill="white"/>
<path d="M297.047 223.663C297.047 223.663 285.856 221.084 279.701 225.812C273.547 230.54 287.535 241.285 287.535 241.285L297.047 223.663Z" fill="#2F2E41"/>
<path d="M289.622 218.791C295.452 218.791 300.178 214.065 300.178 208.234C300.178 202.404 295.452 197.678 289.622 197.678C283.792 197.678 279.066 202.404 279.066 208.234C279.066 214.065 283.792 218.791 289.622 218.791Z" fill="#A0616A"/>
<path d="M281.459 193.414C282.163 192.219 283.184 191.242 284.408 190.591C285.632 189.939 287.012 189.639 288.397 189.723C289.844 189.904 291.257 190.3 292.589 190.896L299.49 193.588C301.275 194.285 303.231 195.138 304.006 196.892C304.725 198.519 304.188 200.398 303.645 202.092L301.063 210.145C300.777 208.322 300.287 206.538 299.6 204.825C298.903 203.102 297.642 201.664 296.024 200.748C294.232 199.828 292.119 199.847 290.107 199.944C287.257 200.081 284.159 200.444 282.134 202.454C281.059 203.596 280.33 205.019 280.033 206.559C279.74 208.09 279.592 209.646 279.592 211.205C278.423 209.196 277.439 207.085 276.651 204.899C276.003 203.271 275.633 201.545 275.558 199.794C275.49 198.028 276.076 196.3 277.203 194.939C277.776 194.274 278.522 193.782 279.359 193.519C280.196 193.255 281.089 193.231 281.939 193.448L281.459 193.414Z" fill="#2F2E41"/>
<path d="M314.827 232.816C314.728 232.46 314.526 232.141 314.246 231.898C313.966 231.656 313.621 231.502 313.254 231.456C313.229 231.439 313.204 231.424 313.177 231.41L297.419 222.578C296.969 222.326 296.439 222.257 295.94 222.386C295.44 222.514 295.01 222.83 294.737 223.269L290.427 230.247L283.936 223.755L283.833 223.652C283.5 223.319 283.06 223.114 282.59 223.072C282.121 223.031 281.652 223.157 281.266 223.427L268.315 232.497C268.293 232.497 268.27 232.505 268.247 232.505C267.627 232.608 267.061 232.92 266.642 233.388C266.224 233.857 265.977 234.454 265.944 235.082L265.609 241.84H317.328L314.827 232.816Z" fill="#D28C64"/>
<path d="M343.692 240.791H333.714C333.714 240.512 333.603 240.245 333.406 240.048C333.209 239.851 332.942 239.74 332.664 239.74H329.513C329.234 239.74 328.967 239.851 328.77 240.048C328.573 240.245 328.462 240.512 328.462 240.791H325.311C325.311 240.512 325.201 240.245 325.004 240.048C324.807 239.851 324.539 239.74 324.261 239.74H321.11C320.831 239.74 320.564 239.851 320.367 240.048C320.17 240.245 320.06 240.512 320.06 240.791H316.909C316.909 240.512 316.798 240.245 316.601 240.048C316.404 239.851 316.137 239.74 315.858 239.74H312.707C312.429 239.74 312.161 239.851 311.964 240.048C311.767 240.245 311.657 240.512 311.657 240.791H308.506C308.506 240.512 308.395 240.245 308.198 240.048C308.001 239.851 307.734 239.74 307.455 239.74H304.304C304.026 239.74 303.759 239.851 303.562 240.048C303.365 240.245 303.254 240.512 303.254 240.791H300.103C300.103 240.512 299.992 240.245 299.795 240.048C299.598 239.851 299.331 239.74 299.053 239.74H295.902C295.623 239.74 295.356 239.851 295.159 240.048C294.962 240.245 294.851 240.512 294.851 240.791H291.7C291.7 240.512 291.59 240.245 291.393 240.048C291.196 239.851 290.929 239.74 290.65 239.74H287.499C287.22 239.74 286.953 239.851 286.756 240.048C286.559 240.245 286.449 240.512 286.449 240.791H283.298C283.298 240.512 283.187 240.245 282.99 240.048C282.793 239.851 282.526 239.74 282.247 239.74H279.096C278.818 239.74 278.55 239.851 278.354 240.048C278.157 240.245 278.046 240.512 278.046 240.791H274.895C274.895 240.512 274.784 240.245 274.587 240.048C274.39 239.851 274.123 239.74 273.845 239.74H270.693C270.415 239.74 270.148 239.851 269.951 240.048C269.754 240.245 269.643 240.512 269.643 240.791H266.492C266.492 240.512 266.381 240.245 266.184 240.048C265.987 239.851 265.72 239.74 265.442 239.74H262.291C262.012 239.74 261.745 239.851 261.548 240.048C261.351 240.245 261.24 240.512 261.24 240.791H258.089C258.089 240.512 257.979 240.245 257.782 240.048C257.585 239.851 257.318 239.74 257.039 239.74H253.888C253.609 239.74 253.342 239.851 253.145 240.048C252.948 240.245 252.838 240.512 252.838 240.791H249.687C249.687 240.512 249.576 240.245 249.379 240.048C249.182 239.851 248.915 239.74 248.636 239.74H245.485C245.207 239.74 244.94 239.851 244.743 240.048C244.546 240.245 244.435 240.512 244.435 240.791H234.457C233.622 240.792 232.822 241.125 232.232 241.715C231.642 242.306 231.311 243.107 231.311 243.942C231.311 244.777 231.642 245.578 232.232 246.169C232.822 246.759 233.622 247.092 234.457 247.093H343.692C344.528 247.093 345.329 246.761 345.92 246.17C346.511 245.579 346.843 244.778 346.843 243.942C346.843 243.106 346.511 242.305 345.92 241.714C345.329 241.123 344.528 240.791 343.692 240.791Z" fill="#3F3D56"/>
<path d="M218.214 222.491V243.415H165.795C164.39 243.464 162.99 243.23 161.678 242.726C160.367 242.222 159.169 241.46 158.159 240.483C157.148 239.507 156.344 238.337 155.795 237.043C155.246 235.75 154.963 234.358 154.963 232.953C154.963 231.548 155.246 230.157 155.795 228.863C156.344 227.569 157.148 226.399 158.159 225.423C159.169 224.447 160.367 223.684 161.678 223.18C162.99 222.676 164.39 222.442 165.795 222.491H218.214Z" fill="#F2F2F2"/>
<path d="M219.501 243.254C219.501 243.468 219.416 243.673 219.265 243.823C219.114 243.974 218.91 244.059 218.696 244.059H164.861C161.937 244.059 159.133 242.898 157.065 240.83C154.997 238.762 153.836 235.958 153.836 233.034C153.836 230.109 154.997 227.305 157.065 225.237C159.133 223.169 161.937 222.008 164.861 222.008H218.696C218.91 222.008 219.114 222.093 219.265 222.244C219.416 222.394 219.501 222.599 219.501 222.813C219.501 223.026 219.416 223.231 219.265 223.382C219.114 223.533 218.91 223.617 218.696 223.617H164.861C162.365 223.62 159.972 224.613 158.209 226.378C156.445 228.144 155.454 230.538 155.454 233.034C155.454 235.529 156.445 237.923 158.209 239.689C159.972 241.454 162.365 242.447 164.861 242.45H218.696C218.91 242.45 219.114 242.535 219.265 242.685C219.416 242.836 219.501 243.041 219.501 243.254Z" fill="#D28C64"/>
<path d="M218.213 227.32H161.883C161.862 227.32 161.84 227.316 161.821 227.308C161.801 227.3 161.783 227.288 161.768 227.273C161.753 227.258 161.741 227.24 161.733 227.221C161.725 227.201 161.721 227.18 161.721 227.159C161.721 227.138 161.725 227.117 161.733 227.097C161.741 227.078 161.753 227.06 161.768 227.045C161.783 227.03 161.801 227.018 161.821 227.01C161.84 227.002 161.862 226.998 161.883 226.998H218.213C218.256 226.998 218.296 227.015 218.326 227.046C218.356 227.076 218.373 227.117 218.373 227.159C218.373 227.202 218.356 227.242 218.326 227.272C218.296 227.303 218.256 227.32 218.213 227.32Z" fill="#CCCCCC"/>
<path d="M218.213 231.181H161.883C161.862 231.181 161.84 231.177 161.821 231.169C161.801 231.161 161.783 231.15 161.768 231.135C161.753 231.12 161.741 231.102 161.733 231.082C161.725 231.063 161.721 231.042 161.721 231.02C161.721 230.999 161.725 230.978 161.733 230.958C161.741 230.939 161.753 230.921 161.768 230.906C161.783 230.891 161.801 230.879 161.821 230.871C161.84 230.863 161.862 230.859 161.883 230.859H218.213C218.256 230.86 218.296 230.877 218.326 230.907C218.356 230.937 218.373 230.978 218.373 231.02C218.373 231.063 218.356 231.104 218.326 231.134C218.296 231.164 218.256 231.181 218.213 231.181Z" fill="#CCCCCC"/>
<path d="M218.213 235.045H161.883C161.862 235.045 161.84 235.041 161.821 235.033C161.801 235.025 161.783 235.013 161.768 234.998C161.753 234.983 161.741 234.965 161.733 234.945C161.725 234.926 161.721 234.905 161.721 234.884C161.721 234.862 161.725 234.841 161.733 234.822C161.741 234.802 161.753 234.784 161.768 234.769C161.783 234.754 161.801 234.743 161.821 234.735C161.84 234.727 161.862 234.723 161.883 234.723H218.213C218.256 234.723 218.296 234.74 218.326 234.77C218.356 234.8 218.373 234.841 218.373 234.884C218.373 234.926 218.356 234.967 218.326 234.997C218.296 235.027 218.256 235.044 218.213 235.045Z" fill="#CCCCCC"/>
<path d="M218.213 238.908H161.883C161.862 238.908 161.84 238.904 161.821 238.896C161.801 238.888 161.783 238.876 161.768 238.861C161.753 238.846 161.741 238.828 161.733 238.809C161.725 238.789 161.721 238.768 161.721 238.747C161.721 238.726 161.725 238.705 161.733 238.685C161.741 238.665 161.753 238.648 161.768 238.633C161.783 238.618 161.801 238.606 161.821 238.598C161.84 238.59 161.862 238.586 161.883 238.586H218.213C218.256 238.586 218.296 238.603 218.326 238.633C218.356 238.664 218.373 238.704 218.373 238.747C218.373 238.789 218.356 238.83 218.326 238.86C218.296 238.89 218.256 238.908 218.213 238.908Z" fill="#CCCCCC"/>
<path d="M208.331 200.446V221.371H155.912C154.507 221.419 153.107 221.185 151.796 220.681C150.484 220.177 149.287 219.415 148.276 218.438C147.265 217.462 146.461 216.292 145.912 214.998C145.363 213.705 145.08 212.314 145.08 210.908C145.08 209.503 145.363 208.112 145.912 206.818C146.461 205.524 147.265 204.354 148.276 203.378C149.287 202.402 150.484 201.639 151.796 201.135C153.107 200.631 154.507 200.397 155.912 200.446H208.331Z" fill="#F2F2F2"/>
<path d="M209.62 221.21C209.62 221.423 209.535 221.628 209.384 221.778C209.234 221.929 209.029 222.014 208.816 222.014H154.98C153.532 222.014 152.098 221.729 150.761 221.175C149.423 220.621 148.208 219.809 147.184 218.785C146.16 217.761 145.348 216.546 144.794 215.208C144.24 213.87 143.955 212.437 143.955 210.989C143.955 209.541 144.24 208.107 144.794 206.769C145.348 205.432 146.16 204.216 147.184 203.192C148.208 202.168 149.423 201.356 150.761 200.802C152.098 200.248 153.532 199.963 154.98 199.963H208.816C209.029 199.963 209.234 200.048 209.385 200.199C209.535 200.35 209.62 200.554 209.62 200.768C209.62 200.981 209.535 201.186 209.385 201.337C209.234 201.488 209.029 201.572 208.816 201.572H154.98C152.484 201.575 150.092 202.568 148.328 204.333C146.564 206.099 145.573 208.493 145.573 210.989C145.573 213.484 146.564 215.878 148.328 217.644C150.092 219.409 152.484 220.402 154.98 220.405H208.816C209.029 220.405 209.234 220.49 209.384 220.641C209.535 220.791 209.62 220.996 209.62 221.21Z" fill="#3F3D56"/>
<path d="M208.332 205.273H152.002C151.981 205.273 151.96 205.269 151.94 205.261C151.92 205.253 151.902 205.241 151.887 205.226C151.872 205.211 151.86 205.194 151.852 205.174C151.844 205.154 151.84 205.133 151.84 205.112C151.84 205.091 151.844 205.07 151.852 205.05C151.86 205.031 151.872 205.013 151.887 204.998C151.902 204.983 151.92 204.971 151.94 204.963C151.96 204.955 151.981 204.951 152.002 204.951H208.332C208.375 204.951 208.415 204.969 208.445 204.999C208.475 205.029 208.492 205.07 208.492 205.112C208.492 205.155 208.475 205.195 208.445 205.226C208.415 205.256 208.375 205.273 208.332 205.273Z" fill="#CCCCCC"/>
<path d="M208.332 209.136H152.002C151.981 209.137 151.96 209.132 151.94 209.124C151.92 209.116 151.902 209.105 151.887 209.09C151.872 209.075 151.86 209.057 151.852 209.037C151.844 209.018 151.84 208.997 151.84 208.975C151.84 208.954 151.844 208.933 151.852 208.914C151.86 208.894 151.872 208.876 151.887 208.861C151.902 208.846 151.92 208.834 151.94 208.826C151.96 208.818 151.981 208.814 152.002 208.814H208.332C208.375 208.815 208.415 208.832 208.445 208.862C208.475 208.892 208.492 208.933 208.492 208.975C208.492 209.018 208.475 209.059 208.445 209.089C208.415 209.119 208.375 209.136 208.332 209.136Z" fill="#CCCCCC"/>
<path d="M208.332 213H152.002C151.981 213 151.96 212.996 151.94 212.988C151.92 212.98 151.902 212.968 151.887 212.953C151.872 212.938 151.86 212.92 151.852 212.901C151.844 212.881 151.84 212.86 151.84 212.839C151.84 212.817 151.844 212.796 151.852 212.777C151.86 212.757 151.872 212.739 151.887 212.724C151.902 212.71 151.92 212.698 151.94 212.69C151.96 212.682 151.981 212.678 152.002 212.678H208.332C208.375 212.678 208.415 212.695 208.445 212.725C208.475 212.755 208.492 212.796 208.492 212.839C208.492 212.881 208.475 212.922 208.445 212.952C208.415 212.982 208.375 212.999 208.332 213Z" fill="#CCCCCC"/>
<path d="M208.332 216.863H152.002C151.981 216.863 151.96 216.859 151.94 216.851C151.92 216.843 151.902 216.831 151.887 216.816C151.872 216.801 151.86 216.783 151.852 216.764C151.844 216.744 151.84 216.723 151.84 216.702C151.84 216.681 151.844 216.66 151.852 216.64C151.86 216.621 151.872 216.603 151.887 216.588C151.902 216.573 151.92 216.561 151.94 216.553C151.96 216.545 151.981 216.541 152.002 216.541H208.332C208.375 216.541 208.415 216.558 208.445 216.589C208.475 216.619 208.492 216.659 208.492 216.702C208.492 216.744 208.475 216.785 208.445 216.815C208.415 216.846 208.375 216.863 208.332 216.863Z" fill="#CCCCCC"/>
<path d="M269.312 317.791V299.547C269.312 298.74 268.992 297.967 268.421 297.396C267.851 296.826 267.078 296.506 266.272 296.506H197.101C196.295 296.506 195.521 296.826 194.951 297.396C194.381 297.967 194.061 298.74 194.061 299.547V317.791H269.312Z" fill="#CCCCCC"/>
<path d="M269.312 324.633H194.061V348.199H269.312V324.633Z" fill="#CCCCCC"/>
<path d="M194.061 355.041V373.286C194.061 374.092 194.381 374.865 194.951 375.436C195.521 376.006 196.295 376.326 197.101 376.326H266.272C267.078 376.326 267.851 376.006 268.421 375.436C268.992 374.865 269.312 374.092 269.312 373.286V355.041H194.061Z" fill="#CCCCCC"/>
<path d="M231.306 310.19C232.565 310.19 233.586 309.169 233.586 307.909C233.586 306.65 232.565 305.629 231.306 305.629C230.046 305.629 229.025 306.65 229.025 307.909C229.025 309.169 230.046 310.19 231.306 310.19Z" fill="white"/>
<path d="M231.306 340.596C232.565 340.596 233.586 339.575 233.586 338.316C233.586 337.056 232.565 336.035 231.306 336.035C230.046 336.035 229.025 337.056 229.025 338.316C229.025 339.575 230.046 340.596 231.306 340.596Z" fill="white"/>
<path d="M231.427 370.36C232.686 370.36 233.707 369.339 233.707 368.079C233.707 366.82 232.686 365.799 231.427 365.799C230.167 365.799 229.146 366.82 229.146 368.079C229.146 369.339 230.167 370.36 231.427 370.36Z" fill="white"/>
<path d="M260.78 275.704V296.628H208.361C206.957 296.677 205.557 296.443 204.245 295.939C202.933 295.435 201.736 294.672 200.725 293.696C199.714 292.72 198.91 291.55 198.361 290.256C197.812 288.962 197.529 287.571 197.529 286.166C197.529 284.761 197.812 283.37 198.361 282.076C198.91 280.782 199.714 279.612 200.725 278.636C201.736 277.66 202.933 276.897 204.245 276.393C205.557 275.889 206.957 275.655 208.361 275.704H260.78Z" fill="#F2F2F2"/>
<path d="M262.067 296.467C262.067 296.681 261.982 296.885 261.831 297.036C261.68 297.187 261.476 297.272 261.262 297.272H207.426C205.978 297.273 204.543 296.989 203.205 296.435C201.866 295.882 200.65 295.07 199.625 294.046C198.6 293.022 197.787 291.806 197.233 290.468C196.678 289.13 196.393 287.695 196.393 286.246C196.393 284.798 196.678 283.363 197.233 282.025C197.787 280.687 198.6 279.471 199.625 278.447C200.65 277.423 201.866 276.611 203.205 276.057C204.543 275.504 205.978 275.22 207.426 275.221H261.262C261.476 275.221 261.68 275.305 261.831 275.456C261.982 275.607 262.067 275.812 262.067 276.025C262.067 276.239 261.982 276.444 261.831 276.595C261.68 276.745 261.476 276.83 261.262 276.83H207.426C204.931 276.833 202.538 277.826 200.774 279.591C199.01 281.357 198.02 283.751 198.02 286.246C198.02 288.742 199.01 291.136 200.774 292.902C202.538 294.667 204.931 295.66 207.426 295.663H261.262C261.476 295.663 261.68 295.747 261.831 295.898C261.982 296.049 262.067 296.254 262.067 296.467Z" fill="#3F3D56"/>
<path d="M260.78 280.533H204.449C204.428 280.533 204.407 280.529 204.387 280.521C204.368 280.513 204.35 280.501 204.335 280.486C204.32 280.471 204.308 280.453 204.299 280.434C204.291 280.414 204.287 280.393 204.287 280.372C204.287 280.351 204.291 280.33 204.299 280.31C204.308 280.29 204.32 280.273 204.335 280.258C204.35 280.243 204.368 280.231 204.387 280.223C204.407 280.215 204.428 280.211 204.449 280.211H260.78C260.822 280.211 260.863 280.228 260.893 280.258C260.923 280.289 260.939 280.329 260.939 280.372C260.939 280.414 260.923 280.455 260.893 280.485C260.863 280.515 260.822 280.533 260.78 280.533Z" fill="#CCCCCC"/>
<path d="M260.78 284.396H204.449C204.428 284.396 204.407 284.392 204.387 284.384C204.368 284.376 204.35 284.364 204.335 284.349C204.32 284.334 204.308 284.317 204.299 284.297C204.291 284.277 204.287 284.256 204.287 284.235C204.287 284.214 204.291 284.193 204.299 284.173C204.308 284.154 204.32 284.136 204.335 284.121C204.35 284.106 204.368 284.094 204.387 284.086C204.407 284.078 204.428 284.074 204.449 284.074H260.78C260.822 284.075 260.863 284.092 260.893 284.122C260.923 284.152 260.939 284.193 260.939 284.235C260.939 284.278 260.923 284.318 260.893 284.349C260.863 284.379 260.822 284.396 260.78 284.396Z" fill="#CCCCCC"/>
<path d="M260.78 288.257H204.449C204.428 288.258 204.407 288.254 204.387 288.246C204.368 288.238 204.35 288.226 204.335 288.211C204.32 288.196 204.308 288.178 204.299 288.158C204.291 288.139 204.287 288.118 204.287 288.097C204.287 288.075 204.291 288.054 204.299 288.035C204.308 288.015 204.32 287.997 204.335 287.982C204.35 287.967 204.368 287.955 204.387 287.947C204.407 287.939 204.428 287.935 204.449 287.936H260.78C260.822 287.936 260.863 287.953 260.893 287.983C260.923 288.013 260.939 288.054 260.939 288.097C260.939 288.139 260.923 288.18 260.893 288.21C260.863 288.24 260.822 288.257 260.78 288.257Z" fill="#CCCCCC"/>
<path d="M260.78 292.121H204.449C204.428 292.121 204.407 292.117 204.387 292.109C204.368 292.101 204.35 292.089 204.335 292.074C204.32 292.059 204.308 292.041 204.299 292.022C204.291 292.002 204.287 291.981 204.287 291.96C204.287 291.939 204.291 291.918 204.299 291.898C204.308 291.878 204.32 291.861 204.335 291.846C204.35 291.831 204.368 291.819 204.387 291.811C204.407 291.803 204.428 291.799 204.449 291.799H260.78C260.822 291.799 260.863 291.816 260.893 291.846C260.923 291.877 260.939 291.917 260.939 291.96C260.939 292.002 260.923 292.043 260.893 292.073C260.863 292.103 260.822 292.12 260.78 292.121Z" fill="#CCCCCC"/>
<path d="M190.113 139.131V5.7177C190.115 4.20181 190.718 2.74849 191.79 1.67659C192.861 0.604683 194.315 0.00172429 195.83 0H301.28C302.796 0.00173433 304.249 0.604697 305.321 1.6766C306.393 2.7485 306.996 4.20181 306.997 5.7177V139.131C306.996 140.646 306.393 142.1 305.321 143.172C304.249 144.244 302.796 144.847 301.28 144.848H195.83C194.315 144.847 192.861 144.244 191.79 143.172C190.718 142.1 190.115 140.646 190.113 139.131ZM195.83 1.2706C194.652 1.27192 193.521 1.74088 192.688 2.57459C191.854 3.40829 191.385 4.53866 191.384 5.7177V139.131C191.385 140.31 191.854 141.44 192.688 142.274C193.521 143.107 194.652 143.576 195.83 143.578H301.28C302.459 143.576 303.589 143.107 304.423 142.274C305.257 141.44 305.726 140.31 305.727 139.131V5.7177C305.726 4.53867 305.257 3.40829 304.423 2.57459C303.589 1.74088 302.459 1.27192 301.28 1.2706H195.83Z" fill="#E6E6E6"/>
<path d="M254.469 61.2703V33.8764C254.47 33.1185 254.771 32.3918 255.307 31.8559C255.843 31.3199 256.569 31.0184 257.327 31.0176H280.539C281.297 31.0184 282.023 31.3199 282.559 31.8559C283.095 32.3918 283.397 33.1185 283.398 33.8764V61.2703C283.397 62.0283 283.095 62.7549 282.559 63.2909C282.023 63.8268 281.297 64.1283 280.539 64.1292H257.327C256.569 64.1283 255.843 63.8268 255.307 63.2909C254.771 62.7549 254.47 62.0283 254.469 61.2703Z" fill="#D28C64"/>
<path d="M209.365 73.9753V46.5815C209.366 45.8235 209.668 45.0969 210.203 44.5609C210.739 44.025 211.466 43.7235 212.224 43.7227H235.435C236.193 43.7235 236.92 44.025 237.456 44.5609C237.992 45.0969 238.293 45.8235 238.294 46.5815V73.9754C238.293 74.7333 237.992 75.46 237.456 75.996C236.92 76.5319 236.193 76.8334 235.435 76.8342H212.224C211.466 76.8334 210.739 76.5319 210.203 75.9959C209.668 75.46 209.366 74.7333 209.365 73.9753Z" fill="#CCCCCC"/>
<path d="M245.574 112.729V85.3354C245.575 84.5775 245.877 83.8508 246.412 83.3148C246.948 82.7789 247.675 82.4774 248.433 82.4766H271.644C272.402 82.4774 273.129 82.7789 273.665 83.3148C274.201 83.8508 274.502 84.5775 274.503 85.3354V112.729C274.502 113.487 274.201 114.214 273.665 114.75C273.129 115.286 272.402 115.587 271.644 115.588H248.433C247.675 115.587 246.948 115.286 246.412 114.75C245.877 114.214 245.575 113.487 245.574 112.729Z" fill="#1A0495"/>
<path d="M384.286 237.971H360.403C360.176 237.971 359.953 238.023 359.749 238.123L353.722 241.141C353.523 241.225 353.354 241.366 353.235 241.546C353.116 241.726 353.053 241.936 353.053 242.152C353.053 242.367 353.116 242.578 353.235 242.758C353.354 242.938 353.523 243.079 353.722 243.163L359.749 246.181C359.953 246.281 360.176 246.333 360.403 246.333H384.286C384.615 246.352 384.938 246.241 385.186 246.023C385.433 245.805 385.585 245.499 385.608 245.17V239.134C385.585 238.805 385.433 238.499 385.186 238.281C384.938 238.063 384.615 237.952 384.286 237.971Z" fill="#3F3D56"/>
<path d="M385.608 239.134V245.17C385.585 245.499 385.433 245.805 385.186 246.023C384.938 246.241 384.615 246.352 384.285 246.333H379.527V237.971H384.285C384.615 237.952 384.938 238.063 385.186 238.281C385.433 238.499 385.585 238.805 385.608 239.134Z" fill="#D28C64"/>
<path d="M384.107 192.815C385.189 192.349 386.357 192.116 387.535 192.132C388.714 192.148 389.875 192.413 390.944 192.909C392.012 193.405 392.964 194.122 393.736 195.011C394.509 195.901 395.085 196.944 395.426 198.072C395.532 198.429 395.613 198.794 395.669 199.163L429.067 215.726L436.796 210.603L446.413 221.676L434.612 231.261C433.192 232.405 431.442 233.061 429.621 233.131C427.8 233.201 426.004 232.682 424.501 231.651L390.616 208.216C390.364 208.323 390.106 208.417 389.844 208.498C388.717 208.839 387.529 208.938 386.361 208.788C385.192 208.638 384.068 208.243 383.062 207.629C382.057 207.014 381.193 206.194 380.526 205.223C379.86 204.251 379.406 203.149 379.195 201.99C379.132 201.653 379.091 201.313 379.071 200.971C378.977 199.26 379.409 197.561 380.31 196.103C381.21 194.645 382.535 193.498 384.107 192.815Z" fill="#FFB8B8"/>
<path d="M453.668 294.795H417.175C417.175 295.844 379.564 296.695 379.564 296.695C378.974 297.14 378.436 297.65 377.961 298.216C376.532 299.92 375.751 302.074 375.756 304.297V305.818C375.757 308.338 376.758 310.754 378.54 312.536C380.321 314.318 382.738 315.319 385.257 315.32H453.668C456.187 315.318 458.602 314.316 460.384 312.534C462.165 310.753 463.167 308.337 463.169 305.818V304.297C463.166 301.778 462.164 299.363 460.382 297.582C458.601 295.801 456.187 294.798 453.668 294.795Z" fill="#3F3D56"/>
<path d="M413.972 378.797H423.854V314.941H413.972V378.797Z" fill="#3F3D56"/>
<path d="M385.848 378.451C385.848 379.519 400.822 378.864 419.293 378.864C437.764 378.864 452.738 379.519 452.738 378.451C452.738 377.384 437.764 368.916 419.293 368.916C400.822 368.916 385.848 377.384 385.848 378.451Z" fill="#3F3D56"/>
<path d="M394.768 370.965L385.449 370.965L381.016 346.793L394.769 346.794L394.768 370.965Z" fill="#FFB8B8"/>
<path d="M397.145 380L367.098 379.998V379.618C367.098 378.082 367.4 376.561 367.988 375.142C368.576 373.723 369.437 372.434 370.523 371.348C371.609 370.261 372.899 369.4 374.318 368.812C375.736 368.224 377.257 367.922 378.793 367.922H378.794L397.146 367.923L397.145 380Z" fill="#2F2E41"/>
<path d="M380.831 355.978L362.253 314.313C360.702 310.802 360.531 306.835 361.773 303.202C363.015 299.57 365.58 296.539 368.956 294.713L409.253 273.102L427.641 271.538L444.602 269.996L444.725 270.203C444.881 270.468 448.528 276.767 446.063 283.675C444.193 288.915 439.329 293.007 431.606 295.839C413.581 302.45 392.758 308.099 384.642 310.221C384.283 310.312 383.948 310.479 383.658 310.71C383.368 310.94 383.131 311.23 382.961 311.558C382.791 311.884 382.689 312.241 382.664 312.607C382.638 312.973 382.688 313.34 382.812 313.686L400.071 352.467C400.252 352.959 400.316 353.485 400.261 354.006C400.206 354.527 400.031 355.028 399.751 355.471C399.472 355.914 399.094 356.287 398.647 356.56C398.201 356.834 397.697 357.002 397.176 357.05L384.279 357.989C384.17 358 384.061 358.005 383.952 358.005C383.292 358.005 382.645 357.813 382.092 357.453C381.538 357.093 381.1 356.581 380.831 355.978Z" fill="#2F2E41"/>
<path d="M399.328 370.965L390.01 370.965L385.576 346.793L399.33 346.794L399.328 370.965Z" fill="#FFB8B8"/>
<path d="M401.706 380L371.658 379.998V379.618C371.658 378.082 371.961 376.561 372.548 375.142C373.136 373.723 373.998 372.434 375.084 371.348C376.17 370.261 377.459 369.4 378.878 368.812C380.297 368.224 381.818 367.922 383.354 367.922H383.354L401.707 367.923L401.706 380Z" fill="#2F2E41"/>
<path d="M386.151 358.257L367.573 316.593C366.022 313.081 365.851 309.114 367.093 305.482C368.335 301.849 370.9 298.818 374.277 296.992L414.573 275.381L432.961 273.817L449.923 272.275L450.045 272.483C450.201 272.747 453.848 279.047 451.383 285.954C449.513 291.194 444.649 295.287 436.927 298.119C418.901 304.729 398.078 310.378 389.962 312.5C389.603 312.592 389.268 312.758 388.978 312.989C388.689 313.22 388.451 313.509 388.281 313.838C388.111 314.163 388.01 314.52 387.984 314.886C387.958 315.252 388.009 315.62 388.132 315.965L405.392 354.746C405.572 355.238 405.637 355.765 405.581 356.286C405.526 356.806 405.352 357.308 405.072 357.75C404.792 358.193 404.414 358.566 403.968 358.84C403.521 359.114 403.018 359.281 402.496 359.33L389.6 360.269C389.49 360.279 389.381 360.284 389.273 360.284C388.612 360.284 387.966 360.092 387.412 359.733C386.858 359.373 386.42 358.86 386.151 358.257Z" fill="#2F2E41"/>
<path d="M376.892 230.979C369.085 220.593 362.914 209.075 358.592 196.822C358.341 196.089 358.359 195.291 358.642 194.57C358.925 193.849 359.454 193.252 360.136 192.885L386.85 178.569C387.283 178.336 387.762 178.204 388.253 178.184C388.744 178.164 389.233 178.257 389.682 178.454C390.14 178.653 390.547 178.954 390.871 179.334C391.195 179.714 391.429 180.163 391.553 180.647C394.663 192.454 400.507 203.363 408.615 212.491C408.948 212.863 409.193 213.306 409.33 213.786C409.466 214.267 409.492 214.772 409.404 215.264C409.319 215.747 409.125 216.206 408.837 216.603C408.548 217.001 408.173 217.327 407.739 217.558L381.025 231.873C380.342 232.238 379.551 232.348 378.794 232.184C378.037 232.02 377.363 231.593 376.892 230.979Z" fill="#CCCCCC"/>
<path d="M378.715 229.609C378.858 229.789 379.06 229.912 379.285 229.959C379.51 230.005 379.745 229.972 379.948 229.864L406.662 215.548C406.792 215.481 406.904 215.384 406.99 215.266C407.076 215.147 407.134 215.011 407.158 214.866C407.186 214.714 407.178 214.557 407.135 214.409C407.093 214.26 407.016 214.123 406.911 214.009C398.565 204.611 392.548 193.381 389.347 181.226C389.31 181.076 389.239 180.936 389.139 180.818C389.039 180.7 388.913 180.607 388.771 180.545C388.637 180.486 388.491 180.458 388.345 180.464C388.199 180.47 388.056 180.51 387.927 180.58L361.213 194.896C361.011 195.005 360.853 195.182 360.767 195.395C360.681 195.609 360.672 195.845 360.742 196.064C364.987 208.098 371.048 219.41 378.715 229.609Z" fill="white"/>
<path d="M465.641 227.159L444.719 235.111L439.611 220.92C438.933 219.036 438.943 216.973 439.638 215.095C440.334 213.217 441.671 211.646 443.413 210.658C445.176 209.659 447.237 209.324 449.225 209.712C451.213 210.1 452.997 211.187 454.254 212.775L465.641 227.159Z" fill="#D28C64"/>
<path d="M412.426 283.383C411.985 283.072 411.617 282.67 411.343 282.205C411.07 281.74 410.899 281.222 410.842 280.685C408.162 255.668 410.029 236.09 416.547 220.832C417.696 218.201 419.425 215.863 421.606 213.997C423.787 212.13 426.363 210.781 429.14 210.053L446.052 209.199L446.14 209.242C449.956 211.111 453.069 214.161 455.016 217.938C456.962 221.716 457.64 226.021 456.948 230.214C451.509 244.554 446.954 259.483 450.428 271.527C450.573 272.031 450.616 272.558 450.552 273.079C450.489 273.599 450.322 274.101 450.06 274.555C449.806 274.994 449.465 275.376 449.057 275.678C448.65 275.98 448.185 276.195 447.691 276.311L415.479 283.974C414.957 284.098 414.415 284.11 413.889 284.008C413.362 283.906 412.863 283.693 412.426 283.383Z" fill="#D28C64"/>
<path d="M440.408 202.883C450.718 202.883 459.077 194.524 459.077 184.212C459.077 173.9 450.718 165.541 440.408 165.541C430.097 165.541 421.738 173.9 421.738 184.212C421.738 194.524 430.097 202.883 440.408 202.883Z" fill="#FFB8B8"/>
<path d="M388.604 199L374.054 205.423C373.501 205.667 372.874 205.681 372.31 205.462C371.746 205.244 371.292 204.811 371.047 204.258L370.688 203.442C370.444 202.889 370.43 202.262 370.648 201.698C370.867 201.134 371.3 200.68 371.853 200.435L386.403 194.012C386.956 193.768 387.583 193.754 388.147 193.973C388.711 194.191 389.165 194.624 389.41 195.177L389.77 195.992C390.013 196.546 390.027 197.173 389.809 197.737C389.59 198.301 389.157 198.755 388.604 199Z" fill="#CCCCCC"/>
<path d="M393.925 208.881L379.375 215.304C378.821 215.547 378.194 215.562 377.63 215.343C377.067 215.125 376.612 214.691 376.368 214.139L376.008 213.323C375.764 212.77 375.75 212.142 375.969 211.579C376.187 211.015 376.62 210.561 377.173 210.316L391.723 203.893C392.276 203.649 392.904 203.635 393.467 203.853C394.031 204.072 394.485 204.505 394.73 205.058L395.09 205.873C395.333 206.427 395.347 207.054 395.129 207.618C394.911 208.182 394.477 208.636 393.925 208.881Z" fill="#CCCCCC"/>
<path d="M405.145 247.482L372.707 221.89C372.449 221.981 372.186 222.058 371.92 222.122C370.775 222.39 369.586 222.414 368.431 222.192C367.277 221.971 366.181 221.509 365.217 220.836C364.246 220.163 363.43 219.291 362.824 218.277C362.217 217.263 361.834 216.131 361.7 214.958C361.483 213.081 361.906 211.186 362.9 209.58C363.895 207.974 365.403 206.751 367.18 206.11C368.289 205.713 369.47 205.553 370.644 205.644C371.819 205.734 372.961 206.071 373.997 206.634C375.032 207.196 375.937 207.971 376.652 208.908C377.367 209.844 377.876 210.921 378.146 212.068C378.229 212.432 378.287 212.801 378.32 213.172L410.61 231.802L418.646 227.175L427.548 238.831L415.071 247.724C413.611 248.757 411.856 249.291 410.068 249.247C408.28 249.204 406.553 248.585 405.145 247.482Z" fill="#FFB8B8"/>
<path d="M431.508 242.459L413 229.872L421.698 217.552C422.853 215.916 424.549 214.741 426.486 214.235C428.424 213.729 430.478 213.923 432.285 214.785C434.114 215.657 435.571 217.154 436.392 219.005C437.214 220.857 437.346 222.941 436.766 224.882L431.508 242.459Z" fill="#D28C64"/>
<path d="M433.564 181.43C428.765 184.715 422.465 188.091 417.564 184.593C414.346 182.297 413.332 178.044 414.637 174.312C416.984 167.6 423.431 164.646 429.597 162.381C437.612 159.437 446.339 157.094 454.613 159.203C462.887 161.311 470.2 169.323 468.706 177.731C467.505 184.492 461.128 190.118 462.033 196.925C462.944 203.776 470.648 207.382 477.449 208.607C484.251 209.831 491.861 210.225 496.749 215.11C502.984 221.343 501.427 232.483 495.56 239.063C489.693 245.644 480.839 248.627 472.26 250.655C460.893 253.341 448.598 254.753 437.802 250.294C427.006 245.836 418.605 233.833 421.732 222.578C423.053 217.824 426.165 213.806 429.173 209.895C432.18 205.983 435.226 201.893 436.373 197.094C437.329 193.095 436.621 188.452 433.97 185.452C433.487 184.927 433.184 184.262 433.103 183.554C433.021 182.846 433.167 182.13 433.518 181.509L433.564 181.43Z" fill="#2F2E41"/>
<path d="M82.9078 272.146C78.0971 273.837 72.932 274.261 67.91 273.376C62.8881 272.492 58.1786 270.328 54.2354 267.095C44.1927 258.665 41.044 244.777 38.4821 231.917C35.9561 219.238 33.4302 206.56 30.9043 193.881L46.7692 204.806C58.1782 212.662 69.8443 220.771 77.7439 232.151C85.6435 243.531 89.0917 259.065 82.7446 271.379" fill="#E6E6E6"/>
<path d="M81.5521 318.197C83.1578 306.5 84.809 294.653 83.6826 282.83C82.6823 272.33 79.4793 262.075 72.9583 253.666C69.4969 249.211 65.2851 245.394 60.5123 242.387C59.2676 241.601 58.1221 243.574 59.3613 244.356C67.6198 249.576 74.0074 257.283 77.6032 266.368C81.5747 276.471 82.2125 287.483 81.5281 298.215C81.1143 304.705 80.2371 311.152 79.3532 317.591C79.2835 317.882 79.327 318.189 79.4748 318.45C79.6226 318.71 79.8638 318.905 80.1495 318.994C80.4411 319.072 80.7518 319.033 81.0144 318.884C81.2769 318.735 81.4702 318.488 81.5521 318.197Z" fill="#F2F2F2"/>
<path d="M66.0857 297.499C64.0225 300.635 61.1864 303.187 57.8508 304.908C54.5152 306.63 50.7924 307.464 47.0412 307.329C37.4005 306.871 29.3633 300.142 22.1283 293.754L0.728516 274.857L14.8916 274.18C25.0769 273.692 35.5249 273.237 45.226 276.379C54.9271 279.52 63.874 287.08 65.6479 297.122" fill="#E6E6E6"/>
<path d="M86.0901 324.921C78.3614 311.244 69.3969 296.044 53.3787 291.186C48.9248 289.84 44.2547 289.358 39.6198 289.765C38.159 289.891 38.5238 292.143 39.9819 292.018C47.7511 291.372 55.5052 293.424 61.939 297.827C68.13 302.042 72.9504 307.901 77.0304 314.114C79.5295 317.92 81.768 321.888 84.007 325.85C84.7225 327.116 86.8139 326.202 86.0901 324.921Z" fill="#F2F2F2"/>
<path d="M98.4732 339.317C98.2128 336.299 97.1295 333.411 95.3412 330.967C93.5529 328.522 91.1282 326.615 88.3312 325.454V317.547H75.071V325.703C72.4117 326.921 70.1231 328.823 68.4384 331.215C66.7538 333.607 65.7334 336.402 65.4813 339.317L62.3633 375.565H101.591L98.4732 339.317Z" fill="#F2F2F2"/>
</g>
<defs>
<clipPath id="clip0_388_1731">
<rect width="526" height="380" fill="white"/>
</clipPath>
</defs>
</svg>
